<?xml version="1.0" ?><svg height="70px" width="70px" style="enable-background:new 0 0 24 24;" version="1.1" viewBox="0 0 24 24" xml:space="preserve" xmlns="http://www.w3.org/2000/svg" xmlns:xlink="http://www.w3.org/1999/xlink"><style type="text/css">
	.st0{display:none;}
</style><g class="st0" id="grid"/><g id="icon"><path d="M3.726,1C3.05,1,2.5,1.55,2.5,2.226v20.549C2.5,23.45,3.05,24,3.726,24h16.548c0.676,0,1.226-0.55,1.226-1.226V2.226   C21.5,1.55,20.95,1,20.274,1h-1.866C18.201,0.419,17.651,0,17,0H7C6.349,0,5.799,0.419,5.592,1H3.726z M7,1h10   c0.276,0,0.5,0.225,0.5,0.5S17.276,2,17,2H7C6.724,2,6.5,1.775,6.5,1.5S6.724,1,7,1z M7,3h10c0.651,0,1.201-0.419,1.408-1h1.866   C20.398,2,20.5,2.102,20.5,2.226v20.549c0,0.124-0.102,0.226-0.226,0.226H3.726C3.602,23,3.5,22.898,3.5,22.774V2.226   C3.5,2.102,3.602,2,3.726,2h1.866C5.799,2.581,6.349,3,7,3z"/><path d="M7,8h10c0.276,0,0.5-0.224,0.5-0.5S17.276,7,17,7H7C6.724,7,6.5,7.224,6.5,7.5S6.724,8,7,8z"/><path d="M7,13h10c0.276,0,0.5-0.224,0.5-0.5S17.276,12,17,12H7c-0.276,0-0.5,0.224-0.5,0.5S6.724,13,7,13z"/><path d="M7,18h10c0.276,0,0.5-0.224,0.5-0.5S17.276,17,17,17H7c-0.276,0-0.5,0.224-0.5,0.5S6.724,18,7,18z"/></g></svg>