<svg class="svg_logo" width="283" height="283" viewBox="0 0 283 283" fill="none" xmlns="http://www.w3.org/2000/svg">
<path d="M283 141.5C283 219.648 219.648 283 141.5 283C63.3517 283 0 219.648 0 141.5C0 63.3517 63.3517 0 141.5 0C219.648 0 283 63.3517 283 141.5Z" fill="white"/>
<path d="M141.5 222.569C184.125 222.569 218.68 188.014 218.68 145.389C218.68 102.764 184.125 68.2094 141.5 68.2094C98.8747 68.2094 64.3201 102.764 64.3201 145.389C64.3201 188.014 98.8747 222.569 141.5 222.569Z" fill="white" stroke="#3895B2" stroke-width="10"/>
<mask id="path-3-outside-1" maskUnits="userSpaceOnUse" x="85.8253" y="38.8309" width="112" height="162" fill="black">
<rect fill="white" x="85.8253" y="38.8309" width="112" height="162"/>
<path d="M113.281 195.335C104.662 194.131 98.0073 190.371 95.4568 185.227C93.6098 181.496 90.7963 171.37 90.8256 166.436L90.9358 166.097C91.0311 165.803 91.4156 165.736 91.6052 165.979C91.8104 166.49 92.3199 167.116 92.4372 167.748C92.789 169.643 94.8411 175.63 95.7206 177.315C97.5383 180.714 100.792 183.572 105.747 186.039C109.47 187.934 114.835 189.198 120.347 189.529C124.568 189.769 127.793 189.168 133.979 187.062C138.582 185.467 138.64 185.467 138.64 186.129C138.64 187.513 135.621 190.882 132.923 192.537C129.288 194.763 125.389 195.636 119.379 195.606C117.005 195.575 114.249 195.455 113.281 195.335Z"/>
<path d="M142.62 185.816C143.403 182.594 143.433 182.564 146.474 179.764C150.961 175.609 152.677 172.537 153.52 167.268C153.821 165.432 153.761 164.769 152.858 160.283C151.774 154.833 151.834 153.658 153.279 152.725C153.911 152.304 154.062 152.334 155.296 153.177C157.374 154.562 159.211 155.254 161.981 155.676C164.119 155.977 164.871 155.947 166.949 155.555C169.629 155.013 170.201 154.712 170.653 153.538C171.104 152.334 170.382 152.033 167.009 152.093C164.39 152.123 163.878 152.033 161.559 151.099C159.512 150.316 158.609 149.714 157.133 148.299C154.875 146.161 153.61 144.234 153.098 142.307C152.737 140.952 152.737 140.771 153.67 138.844C155.236 135.502 155.628 133.635 155.598 129.48V125.777L153.941 122.555C149.124 113.191 149.485 114.124 148.461 107.59C147.889 104.007 146.836 101.418 145.932 101.418C144.758 101.418 144.758 102.11 145.962 109.788C146.354 112.498 146.474 113.913 146.263 114.124C146.053 114.335 144.848 114.064 142.56 113.311C138.585 112.016 136.478 111.053 135.213 109.878C131.841 106.837 122.145 99.7916 119.345 98.3764C117.388 97.3828 116.936 97.3226 116.394 97.9549C115.852 98.6173 116.454 99.7916 117.629 100.454C119.556 101.508 125.367 105.482 127.896 107.5C130.847 109.848 133.647 112.769 134.43 114.365C135.364 116.202 136.267 123.127 136.297 128.396C136.297 131.257 136.357 131.528 136.869 131.528C137.2 131.528 137.592 131.257 137.772 130.955C138.164 130.203 138.736 123.277 138.615 120.598C138.525 118.038 138.766 117.828 141.988 117.858C144.758 117.888 147.498 119.002 149.666 121.019C153.46 124.512 153.881 128.818 151.141 136.104C149.967 139.236 147.137 141.705 142.59 143.511C139.398 144.806 130.847 146.432 130.847 145.77C130.847 145.619 131.389 144.957 132.082 144.324C133.858 142.608 134.52 141.163 134.4 139.266C134.28 137.068 133.557 136.977 132.503 139.055C131.479 141.072 129.643 143.03 128.197 143.692C127.023 144.234 126.993 144.204 125.518 143.451C123.711 142.548 119.977 138.664 118.923 136.586C118.08 134.96 113.413 130.173 108.716 126.138C103.357 121.531 101.309 118.972 100.135 115.389L99.4423 113.371L99.9843 109.878C101.309 101.116 104.742 95.3654 109.65 93.6792C110.794 93.2878 111.426 93.2878 113.925 93.5889C122.115 94.5826 124.885 94.7632 131.961 94.7933C140.964 94.7933 140.482 94.5826 140.482 98.5571C140.482 101.026 140.753 101.719 141.687 101.719C142.379 101.719 142.68 100.936 143.764 96.4795C144.246 94.3417 144.758 92.5351 144.848 92.4447C144.939 92.3243 145.36 92.6856 145.782 93.2276C146.324 93.9201 146.805 94.1911 147.438 94.1911C148.702 94.1911 148.793 93.2577 147.889 90.2467C146.866 86.8142 146.504 84.5559 146.294 79.5576C145.782 67.7244 148.552 57.9386 154.303 51.2241C157.946 46.9786 162.553 44.6601 166.949 44.8408C171.014 45.0515 172.459 46.557 173.513 51.6757C174.326 55.6202 173.694 58.6312 170.321 66.7308C167.1 74.4088 165.383 80.9126 165.504 84.857C165.534 86.0915 165.534 88.8918 165.504 91.0296C165.413 96.901 166.678 102.803 168.695 106.115C174.386 115.449 175.952 118.851 177.066 124.361C177.488 126.379 177.548 127.884 177.427 132.13C177.247 138.423 176.765 141.193 174.778 147.516C173.182 152.635 173.061 153.418 173.754 153.689C174.386 153.929 175.049 153.327 175.38 152.183C175.53 151.671 176.373 149.293 177.217 146.884C179.505 140.47 181.372 132.792 180.95 131.678C180.649 130.925 181.131 128.486 181.613 128.306C182.606 127.944 184.533 128.878 186.159 130.474C188.116 132.461 190.074 136.345 191.278 140.711C192.031 143.361 192.121 144.204 192.061 147.636C191.94 157.091 188.327 169.617 184.172 174.886C180.258 179.824 174.145 182.504 168.906 181.54C163.938 180.637 163.757 179.493 167.852 174.525C169.87 172.056 170.592 170.58 170.321 169.466C169.99 168.232 169.328 168.593 167.732 170.791C162.222 178.409 155.567 183.799 149.907 185.304C144.999 186.599 143.644 186.93 143.012 186.93C142.379 186.93 142.349 186.87 142.62 185.816Z"/>
<path d="M114.437 184.341C112.901 184.19 107.963 183.287 107.963 183.136C107.963 183.076 108.355 182.474 108.837 181.751C109.951 180.095 110.583 178.559 110.824 176.873C111.065 175.277 110.764 173.682 110.252 173.682C110.011 173.682 109.318 174.555 108.686 175.639C107.421 177.867 105.103 180.185 103.929 180.486C101.821 180.998 100.135 179.372 97.756 174.434C94.0224 166.786 92.547 161.607 92.5169 156.218C92.5169 153.237 92.6072 152.544 93.1793 151.189C93.932 149.473 94.474 149.202 95.0461 150.286C96.0698 152.153 101.851 160.704 103.627 162.902C105.825 165.612 109.228 169.015 111.035 170.279C114.678 172.778 126.059 172.658 133.105 170.008C135.936 168.954 143.854 164.618 147.678 162.029C148.22 161.668 148.793 161.397 148.913 161.487C149.003 161.547 149.304 162.752 149.515 164.167C149.846 166.275 149.846 167.027 149.515 168.563C148.491 173.441 144.788 178.138 140.452 180.125C133.828 183.106 128.83 184.22 121.212 184.371C118.141 184.401 115.099 184.401 114.437 184.341Z"/>
<path d="M122.296 167.087C122.206 166.937 122.597 165.823 123.169 164.588C124.795 161.156 124.946 157.422 123.47 157.422C123.29 157.422 122.717 158.145 122.266 159.018C120.158 162.932 117.358 165.552 115.28 165.552C114.016 165.552 111.306 163.504 107.512 159.68C99.3822 151.551 94.6248 143.12 93.5107 134.9C93.2999 133.364 93.2096 131.287 93.2999 130.233C93.7516 125.777 95.9496 119.484 97.0938 119.484C97.4852 119.484 99.2015 121.2 102.152 124.542C110.824 134.358 116.876 140.952 122.266 146.462C124.915 149.142 126.662 150.045 129.914 150.376C133.316 150.738 139.429 149.082 145.451 146.101C147.287 145.197 148.913 144.475 149.094 144.475C149.606 144.475 149.816 145.228 149.816 147.034C149.816 150.437 148.191 154.863 146.113 157.121C142.048 161.547 135.574 164.588 125.668 166.726C122.266 167.449 122.507 167.449 122.296 167.087Z"/>
</mask>
<path d="M113.281 195.335C104.662 194.131 98.0073 190.371 95.4568 185.227C93.6098 181.496 90.7963 171.37 90.8256 166.436L90.9358 166.097C91.0311 165.803 91.4156 165.736 91.6052 165.979C91.8104 166.49 92.3199 167.116 92.4372 167.748C92.789 169.643 94.8411 175.63 95.7206 177.315C97.5383 180.714 100.792 183.572 105.747 186.039C109.47 187.934 114.835 189.198 120.347 189.529C124.568 189.769 127.793 189.168 133.979 187.062C138.582 185.467 138.64 185.467 138.64 186.129C138.64 187.513 135.621 190.882 132.923 192.537C129.288 194.763 125.389 195.636 119.379 195.606C117.005 195.575 114.249 195.455 113.281 195.335Z" fill="white"/>
<path d="M142.62 185.816C143.403 182.594 143.433 182.564 146.474 179.764C150.961 175.609 152.677 172.537 153.52 167.268C153.821 165.432 153.761 164.769 152.858 160.283C151.774 154.833 151.834 153.658 153.279 152.725C153.911 152.304 154.062 152.334 155.296 153.177C157.374 154.562 159.211 155.254 161.981 155.676C164.119 155.977 164.871 155.947 166.949 155.555C169.629 155.013 170.201 154.712 170.653 153.538C171.104 152.334 170.382 152.033 167.009 152.093C164.39 152.123 163.878 152.033 161.559 151.099C159.512 150.316 158.609 149.714 157.133 148.299C154.875 146.161 153.61 144.234 153.098 142.307C152.737 140.952 152.737 140.771 153.67 138.844C155.236 135.502 155.628 133.635 155.598 129.48V125.777L153.941 122.555C149.124 113.191 149.485 114.124 148.461 107.59C147.889 104.007 146.836 101.418 145.932 101.418C144.758 101.418 144.758 102.11 145.962 109.788C146.354 112.498 146.474 113.913 146.263 114.124C146.053 114.335 144.848 114.064 142.56 113.311C138.585 112.016 136.478 111.053 135.213 109.878C131.841 106.837 122.145 99.7916 119.345 98.3764C117.388 97.3828 116.936 97.3226 116.394 97.9549C115.852 98.6173 116.454 99.7916 117.629 100.454C119.556 101.508 125.367 105.482 127.896 107.5C130.847 109.848 133.647 112.769 134.43 114.365C135.364 116.202 136.267 123.127 136.297 128.396C136.297 131.257 136.357 131.528 136.869 131.528C137.2 131.528 137.592 131.257 137.772 130.955C138.164 130.203 138.736 123.277 138.615 120.598C138.525 118.038 138.766 117.828 141.988 117.858C144.758 117.888 147.498 119.002 149.666 121.019C153.46 124.512 153.881 128.818 151.141 136.104C149.967 139.236 147.137 141.705 142.59 143.511C139.398 144.806 130.847 146.432 130.847 145.77C130.847 145.619 131.389 144.957 132.082 144.324C133.858 142.608 134.52 141.163 134.4 139.266C134.28 137.068 133.557 136.977 132.503 139.055C131.479 141.072 129.643 143.03 128.197 143.692C127.023 144.234 126.993 144.204 125.518 143.451C123.711 142.548 119.977 138.664 118.923 136.586C118.08 134.96 113.413 130.173 108.716 126.138C103.357 121.531 101.309 118.972 100.135 115.389L99.4423 113.371L99.9843 109.878C101.309 101.116 104.742 95.3654 109.65 93.6792C110.794 93.2878 111.426 93.2878 113.925 93.5889C122.115 94.5826 124.885 94.7632 131.961 94.7933C140.964 94.7933 140.482 94.5826 140.482 98.5571C140.482 101.026 140.753 101.719 141.687 101.719C142.379 101.719 142.68 100.936 143.764 96.4795C144.246 94.3417 144.758 92.5351 144.848 92.4447C144.939 92.3243 145.36 92.6856 145.782 93.2276C146.324 93.9201 146.805 94.1911 147.438 94.1911C148.702 94.1911 148.793 93.2577 147.889 90.2467C146.866 86.8142 146.504 84.5559 146.294 79.5576C145.782 67.7244 148.552 57.9386 154.303 51.2241C157.946 46.9786 162.553 44.6601 166.949 44.8408C171.014 45.0515 172.459 46.557 173.513 51.6757C174.326 55.6202 173.694 58.6312 170.321 66.7308C167.1 74.4088 165.383 80.9126 165.504 84.857C165.534 86.0915 165.534 88.8918 165.504 91.0296C165.413 96.901 166.678 102.803 168.695 106.115C174.386 115.449 175.952 118.851 177.066 124.361C177.488 126.379 177.548 127.884 177.427 132.13C177.247 138.423 176.765 141.193 174.778 147.516C173.182 152.635 173.061 153.418 173.754 153.689C174.386 153.929 175.049 153.327 175.38 152.183C175.53 151.671 176.373 149.293 177.217 146.884C179.505 140.47 181.372 132.792 180.95 131.678C180.649 130.925 181.131 128.486 181.613 128.306C182.606 127.944 184.533 128.878 186.159 130.474C188.116 132.461 190.074 136.345 191.278 140.711C192.031 143.361 192.121 144.204 192.061 147.636C191.94 157.091 188.327 169.617 184.172 174.886C180.258 179.824 174.145 182.504 168.906 181.54C163.938 180.637 163.757 179.493 167.852 174.525C169.87 172.056 170.592 170.58 170.321 169.466C169.99 168.232 169.328 168.593 167.732 170.791C162.222 178.409 155.567 183.799 149.907 185.304C144.999 186.599 143.644 186.93 143.012 186.93C142.379 186.93 142.349 186.87 142.62 185.816Z" fill="white"/>
<path d="M114.437 184.341C112.901 184.19 107.963 183.287 107.963 183.136C107.963 183.076 108.355 182.474 108.837 181.751C109.951 180.095 110.583 178.559 110.824 176.873C111.065 175.277 110.764 173.682 110.252 173.682C110.011 173.682 109.318 174.555 108.686 175.639C107.421 177.867 105.103 180.185 103.929 180.486C101.821 180.998 100.135 179.372 97.756 174.434C94.0224 166.786 92.547 161.607 92.5169 156.218C92.5169 153.237 92.6072 152.544 93.1793 151.189C93.932 149.473 94.474 149.202 95.0461 150.286C96.0698 152.153 101.851 160.704 103.627 162.902C105.825 165.612 109.228 169.015 111.035 170.279C114.678 172.778 126.059 172.658 133.105 170.008C135.936 168.954 143.854 164.618 147.678 162.029C148.22 161.668 148.793 161.397 148.913 161.487C149.003 161.547 149.304 162.752 149.515 164.167C149.846 166.275 149.846 167.027 149.515 168.563C148.491 173.441 144.788 178.138 140.452 180.125C133.828 183.106 128.83 184.22 121.212 184.371C118.141 184.401 115.099 184.401 114.437 184.341Z" fill="white"/>
<path d="M122.296 167.087C122.206 166.937 122.597 165.823 123.169 164.588C124.795 161.156 124.946 157.422 123.47 157.422C123.29 157.422 122.717 158.145 122.266 159.018C120.158 162.932 117.358 165.552 115.28 165.552C114.016 165.552 111.306 163.504 107.512 159.68C99.3822 151.551 94.6248 143.12 93.5107 134.9C93.2999 133.364 93.2096 131.287 93.2999 130.233C93.7516 125.777 95.9496 119.484 97.0938 119.484C97.4852 119.484 99.2015 121.2 102.152 124.542C110.824 134.358 116.876 140.952 122.266 146.462C124.915 149.142 126.662 150.045 129.914 150.376C133.316 150.738 139.429 149.082 145.451 146.101C147.287 145.197 148.913 144.475 149.094 144.475C149.606 144.475 149.816 145.228 149.816 147.034C149.816 150.437 148.191 154.863 146.113 157.121C142.048 161.547 135.574 164.588 125.668 166.726C122.266 167.449 122.507 167.449 122.296 167.087Z" fill="white"/>
<path d="M113.281 195.335C104.662 194.131 98.0073 190.371 95.4568 185.227C93.6098 181.496 90.7963 171.37 90.8256 166.436L90.9358 166.097C91.0311 165.803 91.4156 165.736 91.6052 165.979C91.8104 166.49 92.3199 167.116 92.4372 167.748C92.789 169.643 94.8411 175.63 95.7206 177.315C97.5383 180.714 100.792 183.572 105.747 186.039C109.47 187.934 114.835 189.198 120.347 189.529C124.568 189.769 127.793 189.168 133.979 187.062C138.582 185.467 138.64 185.467 138.64 186.129C138.64 187.513 135.621 190.882 132.923 192.537C129.288 194.763 125.389 195.636 119.379 195.606C117.005 195.575 114.249 195.455 113.281 195.335Z" stroke="#3895B2" stroke-width="10" mask="url(#path-3-outside-1)"/>
<path d="M142.62 185.816C143.403 182.594 143.433 182.564 146.474 179.764C150.961 175.609 152.677 172.537 153.52 167.268C153.821 165.432 153.761 164.769 152.858 160.283C151.774 154.833 151.834 153.658 153.279 152.725C153.911 152.304 154.062 152.334 155.296 153.177C157.374 154.562 159.211 155.254 161.981 155.676C164.119 155.977 164.871 155.947 166.949 155.555C169.629 155.013 170.201 154.712 170.653 153.538C171.104 152.334 170.382 152.033 167.009 152.093C164.39 152.123 163.878 152.033 161.559 151.099C159.512 150.316 158.609 149.714 157.133 148.299C154.875 146.161 153.61 144.234 153.098 142.307C152.737 140.952 152.737 140.771 153.67 138.844C155.236 135.502 155.628 133.635 155.598 129.48V125.777L153.941 122.555C149.124 113.191 149.485 114.124 148.461 107.59C147.889 104.007 146.836 101.418 145.932 101.418C144.758 101.418 144.758 102.11 145.962 109.788C146.354 112.498 146.474 113.913 146.263 114.124C146.053 114.335 144.848 114.064 142.56 113.311C138.585 112.016 136.478 111.053 135.213 109.878C131.841 106.837 122.145 99.7916 119.345 98.3764C117.388 97.3828 116.936 97.3226 116.394 97.9549C115.852 98.6173 116.454 99.7916 117.629 100.454C119.556 101.508 125.367 105.482 127.896 107.5C130.847 109.848 133.647 112.769 134.43 114.365C135.364 116.202 136.267 123.127 136.297 128.396C136.297 131.257 136.357 131.528 136.869 131.528C137.2 131.528 137.592 131.257 137.772 130.955C138.164 130.203 138.736 123.277 138.615 120.598C138.525 118.038 138.766 117.828 141.988 117.858C144.758 117.888 147.498 119.002 149.666 121.019C153.46 124.512 153.881 128.818 151.141 136.104C149.967 139.236 147.137 141.705 142.59 143.511C139.398 144.806 130.847 146.432 130.847 145.77C130.847 145.619 131.389 144.957 132.082 144.324C133.858 142.608 134.52 141.163 134.4 139.266C134.28 137.068 133.557 136.977 132.503 139.055C131.479 141.072 129.643 143.03 128.197 143.692C127.023 144.234 126.993 144.204 125.518 143.451C123.711 142.548 119.977 138.664 118.923 136.586C118.08 134.96 113.413 130.173 108.716 126.138C103.357 121.531 101.309 118.972 100.135 115.389L99.4423 113.371L99.9843 109.878C101.309 101.116 104.742 95.3654 109.65 93.6792C110.794 93.2878 111.426 93.2878 113.925 93.5889C122.115 94.5826 124.885 94.7632 131.961 94.7933C140.964 94.7933 140.482 94.5826 140.482 98.5571C140.482 101.026 140.753 101.719 141.687 101.719C142.379 101.719 142.68 100.936 143.764 96.4795C144.246 94.3417 144.758 92.5351 144.848 92.4447C144.939 92.3243 145.36 92.6856 145.782 93.2276C146.324 93.9201 146.805 94.1911 147.438 94.1911C148.702 94.1911 148.793 93.2577 147.889 90.2467C146.866 86.8142 146.504 84.5559 146.294 79.5576C145.782 67.7244 148.552 57.9386 154.303 51.2241C157.946 46.9786 162.553 44.6601 166.949 44.8408C171.014 45.0515 172.459 46.557 173.513 51.6757C174.326 55.6202 173.694 58.6312 170.321 66.7308C167.1 74.4088 165.383 80.9126 165.504 84.857C165.534 86.0915 165.534 88.8918 165.504 91.0296C165.413 96.901 166.678 102.803 168.695 106.115C174.386 115.449 175.952 118.851 177.066 124.361C177.488 126.379 177.548 127.884 177.427 132.13C177.247 138.423 176.765 141.193 174.778 147.516C173.182 152.635 173.061 153.418 173.754 153.689C174.386 153.929 175.049 153.327 175.38 152.183C175.53 151.671 176.373 149.293 177.217 146.884C179.505 140.47 181.372 132.792 180.95 131.678C180.649 130.925 181.131 128.486 181.613 128.306C182.606 127.944 184.533 128.878 186.159 130.474C188.116 132.461 190.074 136.345 191.278 140.711C192.031 143.361 192.121 144.204 192.061 147.636C191.94 157.091 188.327 169.617 184.172 174.886C180.258 179.824 174.145 182.504 168.906 181.54C163.938 180.637 163.757 179.493 167.852 174.525C169.87 172.056 170.592 170.58 170.321 169.466C169.99 168.232 169.328 168.593 167.732 170.791C162.222 178.409 155.567 183.799 149.907 185.304C144.999 186.599 143.644 186.93 143.012 186.93C142.379 186.93 142.349 186.87 142.62 185.816Z" stroke="#3895B2" stroke-width="10" mask="url(#path-3-outside-1)"/>
<path d="M114.437 184.341C112.901 184.19 107.963 183.287 107.963 183.136C107.963 183.076 108.355 182.474 108.837 181.751C109.951 180.095 110.583 178.559 110.824 176.873C111.065 175.277 110.764 173.682 110.252 173.682C110.011 173.682 109.318 174.555 108.686 175.639C107.421 177.867 105.103 180.185 103.929 180.486C101.821 180.998 100.135 179.372 97.756 174.434C94.0224 166.786 92.547 161.607 92.5169 156.218C92.5169 153.237 92.6072 152.544 93.1793 151.189C93.932 149.473 94.474 149.202 95.0461 150.286C96.0698 152.153 101.851 160.704 103.627 162.902C105.825 165.612 109.228 169.015 111.035 170.279C114.678 172.778 126.059 172.658 133.105 170.008C135.936 168.954 143.854 164.618 147.678 162.029C148.22 161.668 148.793 161.397 148.913 161.487C149.003 161.547 149.304 162.752 149.515 164.167C149.846 166.275 149.846 167.027 149.515 168.563C148.491 173.441 144.788 178.138 140.452 180.125C133.828 183.106 128.83 184.22 121.212 184.371C118.141 184.401 115.099 184.401 114.437 184.341Z" stroke="#3895B2" stroke-width="10" mask="url(#path-3-outside-1)"/>
<path d="M122.296 167.087C122.206 166.937 122.597 165.823 123.169 164.588C124.795 161.156 124.946 157.422 123.47 157.422C123.29 157.422 122.717 158.145 122.266 159.018C120.158 162.932 117.358 165.552 115.28 165.552C114.016 165.552 111.306 163.504 107.512 159.68C99.3822 151.551 94.6248 143.12 93.5107 134.9C93.2999 133.364 93.2096 131.287 93.2999 130.233C93.7516 125.777 95.9496 119.484 97.0938 119.484C97.4852 119.484 99.2015 121.2 102.152 124.542C110.824 134.358 116.876 140.952 122.266 146.462C124.915 149.142 126.662 150.045 129.914 150.376C133.316 150.738 139.429 149.082 145.451 146.101C147.287 145.197 148.913 144.475 149.094 144.475C149.606 144.475 149.816 145.228 149.816 147.034C149.816 150.437 148.191 154.863 146.113 157.121C142.048 161.547 135.574 164.588 125.668 166.726C122.266 167.449 122.507 167.449 122.296 167.087Z" stroke="#3895B2" stroke-width="10" mask="url(#path-3-outside-1)"/>
</svg>